<svg width="200" height="200" viewBox="0 0 200 200" fill="none" xmlns="http://www.w3.org/2000/svg">
  <defs>
    <linearGradient id="bgGradient" x1="0%" y1="0%" x2="100%" y2="100%">
      <stop offset="0%" style="stop-color:#fafafa;stop-opacity:1" />
      <stop offset="100%" style="stop-color:#f3f4f6;stop-opacity:1" />
    </linearGradient>
    <linearGradient id="plateGradient" x1="0%" y1="0%" x2="100%" y2="100%">
      <stop offset="0%" style="stop-color:#ffffff;stop-opacity:1" />
      <stop offset="100%" style="stop-color:#f9fafb;stop-opacity:1" />
    </linearGradient>
    <radialGradient id="foodGradient" cx="50%" cy="40%" r="60%">
      <stop offset="0%" style="stop-color:#fbbf24;stop-opacity:1" />
      <stop offset="100%" style="stop-color:#f59e0b;stop-opacity:1" />
    </radialGradient>
  </defs>
  
  <!-- Background -->
  <rect width="200" height="200" fill="url(#bgGradient)"/>
  
  <!-- Subtle Pattern -->
  <pattern id="dots" patternUnits="userSpaceOnUse" width="20" height="20">
    <circle cx="10" cy="10" r="1" fill="#e5e7eb" opacity="0.3"/>
  </pattern>
  <rect width="200" height="200" fill="url(#dots)"/>
  
  <!-- Plate Shadow -->
  <ellipse cx="100" cy="145" rx="65" ry="18" fill="#d1d5db" opacity="0.2"/>
  
  <!-- Plate -->
  <ellipse cx="100" cy="140" rx="70" ry="22" fill="url(#plateGradient)" stroke="#e5e7eb" stroke-width="2"/>
  <ellipse cx="100" cy="138" rx="65" ry="18" fill="none" stroke="#f3f4f6" stroke-width="1"/>
  
  <!-- Main Food Item -->
  <circle cx="100" cy="120" r="28" fill="url(#foodGradient)"/>
  <circle cx="100" cy="115" r="22" fill="#fed7aa" opacity="0.8"/>
  <circle cx="95" cy="110" r="8" fill="#fbbf24" opacity="0.6"/>
  <circle cx="105" cy="118" r="6" fill="#f97316" opacity="0.7"/>
  
  <!-- Garnish -->
  <ellipse cx="78" cy="132" rx="6" ry="4" fill="#84cc16" transform="rotate(25 78 132)"/>
  <ellipse cx="85" cy="128" rx="4" ry="3" fill="#84cc16" transform="rotate(45 85 128)"/>
  <ellipse cx="122" cy="132" rx="6" ry="4" fill="#ef4444" transform="rotate(-25 122 132)"/>
  <ellipse cx="115" cy="128" rx="4" ry="3" fill="#ef4444" transform="rotate(-45 115 128)"/>
  
  <!-- Elegant Utensils -->
  <g transform="translate(35, 50)" opacity="0.6">
    <!-- Fork -->
    <rect x="0" y="0" width="1.5" height="45" fill="#6b7280"/>
    <rect x="0" y="40" width="5" height="2" fill="#6b7280"/>
    <rect x="-1" y="0" width="0.8" height="10" fill="#6b7280"/>
    <rect x="0.2" y="0" width="0.8" height="10" fill="#6b7280"/>
    <rect x="1.4" y="0" width="0.8" height="10" fill="#6b7280"/>
    <rect x="2.6" y="0" width="0.8" height="10" fill="#6b7280"/>
  </g>
  
  <g transform="translate(160, 50)" opacity="0.6">
    <!-- Knife -->
    <rect x="0" y="0" width="1.5" height="45" fill="#6b7280"/>
    <rect x="0" y="40" width="5" height="2" fill="#6b7280"/>
    <path d="M0 0 L-6 0 L-8 8 L-2 10 Z" fill="#9ca3af"/>
  </g>
  
  <!-- Steam -->
  <g transform="translate(85, 20)" opacity="0.3">
    <path d="M5 15 Q7 10 9 15 Q11 20 13 15" stroke="#9ca3af" stroke-width="1.5" fill="none" stroke-linecap="round"/>
    <path d="M10 12 Q12 7 14 12 Q16 17 18 12" stroke="#9ca3af" stroke-width="1.5" fill="none" stroke-linecap="round"/>
    <path d="M15 9 Q17 4 19 9 Q21 14 23 9" stroke="#9ca3af" stroke-width="1.5" fill="none" stroke-linecap="round"/>
  </g>
  
  <!-- Coffee Cup Icon -->
  <g transform="translate(75, 35)" opacity="0.4">
    <ellipse cx="20" cy="25" rx="18" ry="15" fill="none" stroke="#f59e0b" stroke-width="2"/>
    <path d="M38 20 Q45 20 45 25 Q45 30 38 30" fill="none" stroke="#f59e0b" stroke-width="2"/>
    <ellipse cx="20" cy="22" rx="12" ry="8" fill="#f59e0b" opacity="0.3"/>
  </g>
  
  <!-- Decorative Elements -->
  <circle cx="50" cy="180" r="2" fill="#f59e0b" opacity="0.2"/>
  <circle cx="150" cy="30" r="1.5" fill="#84cc16" opacity="0.3"/>
  <circle cx="30" cy="170" r="1" fill="#ef4444" opacity="0.3"/>
</svg>